<svg xmlns="http://www.w3.org/2000/svg" xmlns:xlink="http://www.w3.org/1999/xlink" class="cssable" data-name="Layer 1" viewBox="0 0 180 48.905">
	<defs>
		<linearGradient id="logo-color-check-top" x1="71.284" y1="-16293.46" x2="71.096" y2="-16325.866" gradientTransform="matrix(1, 0, 0, -1, -1, -16293.547)" gradientUnits="userSpaceOnUse">
			<stop offset="0" stop-color="#e07053"></stop>
			<stop offset="1" stop-color="#ff8363"></stop>
		</linearGradient>
		<linearGradient id="logo-color-check-left" x1="47.817" y1="-16312.881" x2="74.054" y2="-16353.414" gradientTransform="matrix(1, 0, 0, -1, -1, -16293.547)" gradientUnits="userSpaceOnUse">
			<stop offset="0" stop-color="#ff6640"></stop>
			<stop offset="1" stop-color="#d94b27"></stop>
		</linearGradient>
		<linearGradient id="logo-color-check-right" x1="92.022" y1="-16305.485" x2="58.235" y2="-16358.843" gradientTransform="matrix(1, 0, 0, -1, -1, -16293.547)" gradientUnits="userSpaceOnUse">
			<stop offset="0" stop-color="#eb4015"></stop>
			<stop offset="1" stop-color="#d94b27"></stop>
		</linearGradient>
	</defs>

	<polygon class="color check top" points="95.535 8.154 85.455 0 65.496 16.073 54.973 7.599 44.894 15.715 65.477 32.292 65.496 32.276 65.516 32.292 95.535 8.154" style="fill:url(#logo-color-check-top);"></polygon>
	<polygon class="color check left" points="65.496 48.905 44.894 32.277 44.894 15.715 65.496 32.276 65.496 48.905" style="fill:url(#logo-color-check-left);"></polygon>
	<polygon class="color check right" points="95.535 24.782 65.496 48.905 65.496 32.277 95.535 8.154 95.535 24.782" style="fill:url(#logo-color-check-right);"></polygon>

	<polygon class="grey check top" points="95.535 8.154 85.455 0 65.496 16.073 54.973 7.599 44.894 15.715 65.477 32.292 65.496 32.276 65.516 32.292 95.535 8.154" style="fill:#fff;"></polygon>
	<polygon class="grey check left" points="65.496 48.905 44.894 32.277 44.894 15.715 65.496 32.276 65.496 48.905" style="fill:#e6e6e6;"></polygon>
	<polygon class="grey check right" points="95.535 24.782 65.496 48.905 65.496 32.277 95.535 8.154 95.535 24.782" style="fill:#cccccc;"></polygon>

	<path style="fill:rgba(0,0,0,0);" class="letter" d="M1,17.862h9.486v2.606H3.927v3.7h6.089v2.606H3.927v6.046H1V17.862Z" transform="translate(-1 -1.547)"></path>
	<path style="fill:rgba(0,0,0,0);" class="letter" d="M13.178,30.211H16.96V20.468H13.178V17.862H23.69v2.606h-3.8v9.743h3.8v2.606H13.178V30.211Z" transform="translate(-1 -1.547)"></path>
	<path style="fill:rgba(0,0,0,0);" class="letter" d="M30.078,25.147l-4.23-7.285h3.418l2.179,4.059,0.492,1.09,0.47-1.09,2.222-4.059H37.94l-4.294,7.307,4.423,7.649H34.65l-2.286-4.273L31.787,27.39l-0.555,1.154-2.393,4.273H25.527Z" transform="translate(-1 -1.547)"></path>
	<path style="fill:rgba(0,0,0,0);" class="letter" d="M103.851,18.011q0.9-.17,1.976-0.267t2.147-.1a14,14,0,0,1,2.232.181,5.563,5.563,0,0,1,2.019.726,4.22,4.22,0,0,1,1.464,1.517,5,5,0,0,1,.566,2.532,5.136,5.136,0,0,1-.492,2.339,4.652,4.652,0,0,1-1.3,1.6,5.3,5.3,0,0,1-1.848.919,7.973,7.973,0,0,1-2.147.289h-0.342q-0.235,0-.492-0.011c-0.171-.007-0.338-0.018-0.5-0.032a3.52,3.52,0,0,1-.352-0.043v5.149h-2.927V18.011Zm4.358,2.158q-0.427,0-.812.032t-0.62.075v4.85a2.237,2.237,0,0,0,.256.043q0.171,0.021.363,0.032c0.128,0.007.253,0.01,0.374,0.01h0.267a6.126,6.126,0,0,0,1.143-.107,2.827,2.827,0,0,0,1.015-.4,2.063,2.063,0,0,0,.716-0.8,2.922,2.922,0,0,0,.267-1.346,2.368,2.368,0,0,0-.256-1.164,2.1,2.1,0,0,0-.673-0.737,2.638,2.638,0,0,0-.951-0.385A5.565,5.565,0,0,0,108.209,20.169Z" transform="translate(-1 -1.547)"></path>
	<path style="fill:rgba(0,0,0,0);" class="letter" d="M116.606,17.862h9.806v2.606h-6.879v3.482h6.346v2.606h-6.346v3.654h6.986v2.606h-9.913V17.862Z" transform="translate(-1 -1.547)"></path>
	<path style="fill:rgba(0,0,0,0);" class="letter" d="M137.394,24.848l0.107-2.329h-0.128l-2.393,3.91h-0.513l-2.5-3.91H131.86l0.128,2.094v8.2h-2.777V17.862h2.97l2.564,4.145h0.085l2.543-4.145h2.948V32.817h-2.927V24.848Z" transform="translate(-1 -1.547)"></path>
	<path style="fill:rgba(0,0,0,0);" class="letter" d="M142.586,25.339a14.316,14.316,0,0,1,.342-3.269,6.927,6.927,0,0,1,1.047-2.446,4.781,4.781,0,0,1,1.763-1.528,6.125,6.125,0,0,1,5.1.043,4.756,4.756,0,0,1,1.741,1.6,7.228,7.228,0,0,1,.983,2.457,14.879,14.879,0,0,1,.31,3.141,10.078,10.078,0,0,1-1.4,5.715,4.778,4.778,0,0,1-4.241,2.062,5.485,5.485,0,0,1-2.618-.577,4.735,4.735,0,0,1-1.752-1.6,7.071,7.071,0,0,1-.972-2.457A15.358,15.358,0,0,1,142.586,25.339Zm3.077,0a20.071,20.071,0,0,0,.1,2.03A6.371,6.371,0,0,0,146.121,29a2.56,2.56,0,0,0,.769,1.1,2.06,2.06,0,0,0,1.336.406,2.283,2.283,0,0,0,1.239-.31,2.165,2.165,0,0,0,.791-0.951,5.372,5.372,0,0,0,.417-1.613,19.511,19.511,0,0,0,.118-2.3q0-1.046-.075-1.987a6.008,6.008,0,0,0-.342-1.645,2.592,2.592,0,0,0-.78-1.122,2.1,2.1,0,0,0-1.367-.417,2,2,0,0,0-2.03,1.3A10.7,10.7,0,0,0,145.662,25.339Z" transform="translate(-1 -1.547)"></path>
	<path style="fill:rgba(0,0,0,0);" class="letter" d="M164.1,26.557h-4.829v6.26h-2.927V17.862h2.927v6.089H164.1V17.862h2.927V32.817H164.1v-6.26Z" transform="translate(-1 -1.547)"></path>
	<path style="fill:rgba(0,0,0,0);" class="letter" d="M171.257,30.467h2.436V20.212h-2.051V22.8h-2.35V17.862H181V22.8h-2.35V20.212H176.62V30.467h2.414v2.35h-7.777v-2.35Z" transform="translate(-1 -1.547)"></path>
</svg>
